<?xml version="1.0" encoding="UTF-8" standalone="no"?><!DOCTYPE svg PUBLIC "-//W3C//DTD SVG 1.1//EN" "http://www.w3.org/Graphics/SVG/1.1/DTD/svg11.dtd"><svg width="100%" height="100%" viewBox="0 0 1080 1080" version="1.1" xmlns="http://www.w3.org/2000/svg" xmlns:xlink="http://www.w3.org/1999/xlink" xml:space="preserve" xmlns:serif="http://www.serif.com/" style="fill-rule:evenodd;clip-rule:evenodd;stroke-linejoin:round;stroke-miterlimit:2;"><path d="M927.654,540c0,176.161 -687.151,616.562 -824.581,528.482c-137.431,-88.08 -137.431,-968.884 0,-1056.96c137.43,-88.08 824.581,352.321 824.581,528.482Zm-525.827,-223.436c123.318,0 223.436,100.118 223.436,223.436c0,123.318 -100.118,223.436 -223.436,223.436c-123.318,0 -223.436,-100.118 -223.436,-223.436c0,-123.318 100.118,-223.436 223.436,-223.436Zm0,111.718c61.659,0 111.718,50.059 111.718,111.718c0,61.659 -50.059,111.718 -111.718,111.718c-61.659,0 -111.718,-50.059 -111.718,-111.718c0,-61.659 50.059,-111.718 111.718,-111.718Z" style="fill:#ffffff;"/></svg>