<?xml version="1.0" encoding="UTF-8" standalone="no"?><!DOCTYPE svg PUBLIC "-//W3C//DTD SVG 1.1//EN" "http://www.w3.org/Graphics/SVG/1.1/DTD/svg11.dtd"><svg width="100%" height="100%" viewBox="0 0 114 26" version="1.1" xmlns="http://www.w3.org/2000/svg" xmlns:xlink="http://www.w3.org/1999/xlink" xml:space="preserve" xmlns:serif="http://www.serif.com/" style="fill-rule:evenodd;clip-rule:evenodd;stroke-linejoin:round;stroke-miterlimit:2;"><path d="M0.052,25.825l25.65,0l-0,-25.65l-25.65,0l0,25.65Zm20.713,-15.293l-5.42,0l0,-5.42l5.42,0l0,5.42Zm-15.777,-5.42l5.423,0l0,10.356l10.354,0l0,5.42l-15.777,0l0,-15.776Zm37.417,-4.937c-7.036,0 -12.825,5.789 -12.825,12.825c0,7.036 5.789,12.825 12.825,12.825c7.036,0 12.825,-5.789 12.825,-12.825c-0.008,-7.032 -5.793,-12.817 -12.825,-12.825Zm0,20.713c-4.327,0 -7.888,-3.561 -7.888,-7.888c-0,-4.327 3.561,-7.888 7.888,-7.888c4.327,0 7.888,3.561 7.888,7.888c-0.007,4.325 -3.563,7.881 -7.888,7.888Zm58.719,-20.713c-0,-0 -0.001,-0 -0.001,-0c-7.036,-0 -12.825,5.789 -12.825,12.825c0,7.036 5.789,12.825 12.825,12.825c7.036,-0 12.825,-5.789 12.825,-12.825c-0.008,-7.032 -5.792,-12.816 -12.824,-12.825Zm0,20.713c-0,0 -0.001,0 -0.001,0c-4.327,0 -7.888,-3.561 -7.888,-7.888c0,-4.327 3.561,-7.888 7.888,-7.888c4.327,0 7.888,3.561 7.888,7.888c-0.007,4.324 -3.563,7.881 -7.887,7.888Zm-29.36,-20.713c-7.036,0 -12.825,5.789 -12.825,12.825c0,7.036 5.789,12.825 12.825,12.825c7.036,0 12.825,-5.789 12.825,-12.825c-0.008,-7.032 -5.793,-12.817 -12.825,-12.825Zm0,20.713c-0.001,0 -0.003,0 -0.004,0c-4.327,0 -7.888,-3.561 -7.888,-7.888c0,-4.327 3.561,-7.888 7.888,-7.888c3.397,0 6.429,2.194 7.492,5.42l-7.488,0l0,4.936l7.488,0c-1.065,3.222 -4.094,5.415 -7.488,5.42Z" style="fill:#394149;fill-rule:nonzero;"/></svg>